{"title":"Robin.Dos.Bosques.DVDRip.Xvid.(pt-br.original)-RK.avi","uid":7884221,"size":734916062,"categoryP":"video","categoryS":"movies","magnet":"?xt=urn:btih:6e9e58a43659f1b874174aa24384b9d2b199398d&amp;dn=Robin.Dos.Bosques.DVDRip.Xvid.%28pt-br.original%29-RK.avi&amp;tr=udp%3A%2F%2Ftracker.openbittorrent.com%3A80&amp;tr=udp%3A%2F%2Fopen.demonii.com%3A1337&amp;tr=udp%3A%2F%2Ftracker.coppersurfer.tk%3A6969&amp;tr=udp%3A%2F%2Fexodus.desync.com%3A6969","seeders":1,"leechers":0,"uploader":null,"files":1,"time":1354574032,"description":"Format                                   : AVI\nFormat/Info                              : Audio Video Interleave\nFile size                                : 701 MiB\nDuration                                 : 1h 23mn\nOverall bit rate                         : 1 179 Kbps\nWriting application                      : Lavf51.12.1\n\nVideo\nID                                       : 0\nFormat                                   : xvid\nCodec ID                                 : xvid\nDuration                                 : 1h 23mn\nBit rate                                 : 1 039 Kbps\nWidth                                    : 640 pixels\nHeight                                   : 480 pixels\nDisplay aspect ratio                     : 4:3\nFrame rate                               : 25.000 fps\nBits/(Pixel*Frame)                       : 0.135\nStream size                              : 617 MiB (88%)\n\nAudio\nID                                       : 1\nFormat                                   : MPEG Audio\nFormat version                           : Version 1\nFormat profile                           : Layer 3\nMode                                     : Joint stereo\nMode extension                           : MS Stereo\nCodec ID                                 : 55\nCodec ID/Hint                            : MP3\nDuration                                 : 1h 23mn\nBit rate mode                            : Constant\nBit rate                                 : 128 Kbps\nChannel(s)                               : 2 channels\nSampling rate                            : 44.1 KHz\nCompression mode                         : Lossy\nStream size                              : 76.1 MiB (11%)\nAlignment                                : Aligned on interleaves\nInterleave, duration                     : 26 ms (0.65 video frame)\nWriting library                          : LAME3.97","torrent":{"xt":"urn:btih:6e9e58a43659f1b874174aa24384b9d2b199398d","amp;dn":"Robin.Dos.Bosques.DVDRip.Xvid.%28pt-br.original%29-RK.avi","amp;tr":["udp%3A%2F%2Ftracker.openbittorrent.com%3A80","udp%3A%2F%2Fopen.demonii.com%3A1337","udp%3A%2F%2Ftracker.coppersurfer.tk%3A6969","udp%3A%2F%2Fexodus.desync.com%3A6969"],"infoHash":"6e9e58a43659f1b874174aa24384b9d2b199398d","infoHashBuffer":{"type":"Buffer","data":[110,158,88,164,54,89,241,184,116,23,74,162,67,132,185,210,177,153,57,141]},"announce":[],"urlList":[]}}